<?xml version="1.0" standalone="no"?>
<!DOCTYPE svg PUBLIC "-//W3C//DTD SVG 20010904//EN"
 "http://www.w3.org/TR/2001/REC-SVG-20010904/DTD/svg10.dtd">
<svg version="1.0" xmlns="http://www.w3.org/2000/svg"
 width="400.000000pt" height="400.000000pt" viewBox="0 0 400.000000 400.000000"
 preserveAspectRatio="xMidYMid meet">
<metadata>
Created by potrace 1.14, written by Peter Selinger 2001-2017
</metadata>
<g transform="translate(0.000000,400.000000) scale(0.100000,-0.100000)"
fill="#000000" stroke="none">
<path d="M3008 3139 c-2 -6 -16 -11 -31 -11 -16 0 -24 -5 -20 -11 4 -6 0 -8
-10 -4 -10 3 -17 2 -17 -3 0 -6 5 -10 12 -10 6 0 9 -2 6 -5 -3 -3 -18 -1 -33
5 -24 9 -26 9 -16 -4 9 -11 9 -16 0 -22 -8 -4 -9 -3 -5 4 4 7 1 12 -9 12 -10
0 -15 -6 -12 -13 6 -17 -22 -19 -42 -3 -12 9 -12 7 -2 -12 7 -13 10 -26 7 -30
-3 -3 -6 0 -6 7 0 8 -9 6 -27 -7 -16 -10 -34 -17 -41 -15 -7 3 -11 -1 -10 -7
2 -7 -5 -14 -15 -15 -9 -2 -15 1 -11 6 3 5 10 6 16 3 7 -4 8 -2 4 5 -6 8 -12
9 -20 2 -7 -6 -16 -7 -21 -3 -4 4 -2 -4 5 -18 12 -22 12 -24 -2 -12 -11 9 -18
10 -23 2 -3 -6 -11 -8 -16 -4 -13 7 -7 -19 6 -28 6 -5 5 -8 -3 -8 -7 0 -15 7
-18 15 -4 8 -10 12 -15 9 -5 -3 -7 -8 -5 -12 2 -4 -8 -16 -22 -26 -14 -11 -22
-15 -19 -9 4 6 0 13 -8 16 -11 5 -12 1 -4 -20 8 -21 7 -24 -4 -15 -7 6 -22 9
-32 7 -11 -2 -24 -4 -29 -4 -4 -1 -6 -10 -3 -21 4 -17 2 -18 -14 -9 -11 5 -16
15 -13 21 4 7 2 8 -5 4 -9 -6 -9 -11 -1 -21 7 -8 7 -15 1 -19 -5 -3 -12 0 -15
6 -4 7 -4 3 -2 -10 2 -12 0 -20 -4 -17 -5 3 -11 1 -15 -5 -4 -6 -10 -8 -14 -6
-4 3 -19 -5 -31 -17 -19 -16 -22 -18 -17 -4 3 9 2 17 -3 17 -6 0 -10 -6 -10
-14 0 -8 -5 -18 -12 -22 -6 -4 -8 -3 -5 2 3 6 2 16 -4 24 -7 12 -9 9 -10 -10
-1 -14 -1 -29 0 -33 1 -5 -3 -6 -9 -2 -6 3 -8 11 -5 16 4 5 1 9 -4 9 -6 0 -11
-7 -11 -15 0 -15 -38 -40 -47 -31 -3 3 5 10 18 15 l24 10 -27 -2 c-15 -1 -24
-5 -21 -10 3 -5 -5 -7 -18 -5 -20 2 -24 -1 -21 -22 2 -18 0 -21 -6 -11 -6 7
-15 11 -21 7 -13 -8 -4 21 13 43 9 12 8 13 -3 6 -11 -6 -13 -4 -8 8 3 9 1 19
-5 23 -7 4 -8 3 -4 -4 4 -7 2 -12 -4 -12 -7 0 -9 7 -6 16 3 9 6 18 6 20 0 3 5
2 11 -2 8 -4 8 -1 2 12 -5 11 -9 26 -8 34 1 8 -2 23 -7 32 -5 10 -4 19 3 23 6
4 8 14 5 22 -4 11 -2 13 9 9 8 -3 15 -1 15 4 0 6 -10 10 -22 11 -22 1 -22 1 2
9 18 6 20 8 7 9 -10 1 -15 6 -12 11 4 6 10 8 14 6 4 -3 8 2 8 10 0 10 -4 11
-11 4 -5 -5 -15 -10 -20 -10 -6 0 -5 5 1 11 9 9 8 18 -4 36 -14 21 -14 23 1
17 9 -3 16 -3 16 1 0 12 -27 34 -34 27 -4 -3 -4 2 0 13 4 11 4 17 -1 13 -4 -4
-16 -3 -25 2 -13 7 -20 5 -24 -6 -4 -10 -14 -14 -26 -11 -12 3 -26 -3 -37 -17
l-18 -21 23 19 c12 11 22 16 22 11 0 -13 -53 -49 -74 -50 -13 0 -21 -6 -20
-15 1 -9 -7 -17 -18 -17 -12 -1 -16 3 -11 10 3 7 -3 4 -15 -7 -12 -10 -21 -21
-20 -25 2 -18 -3 -31 -13 -31 -5 0 -8 4 -5 9 3 5 -1 12 -10 15 -24 9 -31 7
-14 -4 13 -8 13 -11 1 -19 -7 -5 -10 -14 -6 -21 6 -9 3 -9 -14 -1 -17 10 -22
9 -27 -3 -3 -8 -3 -20 1 -26 9 -15 -11 -12 -28 5 -13 13 -16 13 -21 -1 -3 -8
-2 -13 3 -10 5 3 11 -1 14 -9 5 -11 1 -12 -18 -5 -16 6 -27 6 -31 -2 -4 -7 -3
-8 4 -4 7 4 12 2 12 -4 0 -6 6 -8 13 -4 6 4 4 -2 -6 -13 -11 -12 -28 -20 -41
-19 -13 2 -31 -3 -41 -11 -11 -7 -14 -13 -9 -13 6 0 15 5 21 11 7 7 12 6 17
-6 3 -9 2 -14 -3 -10 -14 8 -41 -5 -41 -21 0 -8 -5 -14 -11 -14 -5 0 -7 6 -3
13 5 8 2 7 -10 -2 -13 -11 -14 -16 -4 -23 9 -6 6 -7 -9 -3 -19 5 -21 3 -18
-16 2 -12 2 -19 -2 -15 -8 8 -34 -14 -28 -25 3 -4 -4 -6 -16 -4 -15 3 -19 0
-15 -10 3 -10 -2 -12 -17 -10 -21 4 -21 4 -3 -10 18 -13 17 -14 -12 -11 -25 4
-30 1 -25 -11 4 -10 2 -14 -5 -9 -6 3 -14 1 -18 -5 -4 -7 -3 -9 3 -6 6 4 13 1
16 -6 4 -10 -5 -13 -32 -11 -20 1 -30 0 -23 -3 6 -2 9 -9 6 -15 -4 -6 3 -5 17
2 l24 11 -22 -19 c-12 -11 -20 -22 -17 -24 2 -3 -7 -4 -21 -3 -21 3 -23 1 -15
-15 14 -27 12 -37 -3 -16 -12 16 -14 17 -15 2 -1 -9 -3 -23 -4 -31 -1 -8 -5
-12 -9 -9 -4 2 -11 -5 -14 -16 -5 -17 -10 -19 -21 -9 -8 6 -15 9 -15 5 -1 -3
-2 -12 -3 -18 -1 -7 -8 -12 -15 -10 -7 1 -10 -2 -7 -7 6 -9 -11 -26 -26 -26
-3 0 -9 -3 -12 -7 -3 -5 -3 -6 1 -3 3 3 13 -1 21 -8 13 -10 14 -9 7 2 -6 10
-4 12 5 6 10 -6 9 -11 -6 -22 -10 -7 -19 -21 -19 -31 0 -10 -7 -16 -16 -15
-11 2 -15 -5 -15 -25 1 -16 -4 -26 -11 -24 -7 1 -13 -2 -13 -8 0 -5 -8 -7 -18
-4 -13 5 -14 4 -3 -4 16 -12 -2 -27 -21 -17 -7 4 -2 -2 11 -13 16 -13 20 -21
12 -26 -6 -4 -9 -12 -6 -17 3 -5 -1 -6 -9 -3 -9 3 -13 10 -10 15 3 5 -2 6 -12
2 -15 -5 -15 -7 0 -15 25 -14 20 -31 -5 -17 -17 8 -20 8 -14 -1 5 -9 1 -10
-16 -5 -13 4 -26 10 -29 14 -12 14 -52 31 -60 26 -6 -4 -10 1 -10 10 0 24 -54
14 -59 -11 -2 -10 -8 -22 -15 -26 -8 -6 -7 -8 2 -8 7 0 11 -4 8 -9 -3 -5 4
-11 15 -14 12 -3 18 -10 14 -17 -4 -6 -1 -9 7 -8 8 2 12 -5 10 -17 -2 -15 -1
-17 7 -6 11 17 46 7 35 -11 -5 -8 -2 -9 9 -5 10 3 17 2 17 -3 0 -5 7 -7 15 -3
17 6 17 -16 0 -30 -5 -5 1 -5 13 -2 21 6 23 4 17 -14 -4 -15 -1 -23 10 -27 13
-5 14 -9 4 -15 -10 -6 -10 -11 2 -26 13 -17 13 -17 -5 -3 -18 14 -19 13 -13
-3 4 -11 3 -16 -3 -12 -6 3 -10 1 -10 -4 0 -6 -3 -10 -7 -10 -20 3 -34 -2 -28
-11 3 -5 1 -10 -4 -10 -6 0 -11 4 -11 9 0 6 -9 9 -19 8 -11 0 -17 -5 -15 -9 3
-5 11 -5 17 -1 7 4 6 0 -2 -10 -14 -18 -26 -24 -17 -8 3 5 -5 11 -19 13 -14 3
-25 1 -25 -5 0 -5 -10 -7 -23 -4 -20 6 -21 5 -4 -7 14 -11 15 -15 5 -19 -10
-4 -10 -6 0 -6 6 -1 12 -5 12 -11 0 -5 -6 -8 -12 -6 -7 1 -10 1 -5 -1 4 -3 4
-9 1 -15 -4 -5 4 -4 17 3 21 11 23 11 11 -3 -10 -13 -10 -17 4 -22 23 -9 31
-7 14 4 -12 7 -10 9 7 7 12 0 19 -5 17 -9 -3 -4 0 -8 5 -8 6 0 11 6 11 13 0 8
4 7 10 -3 7 -11 10 -12 10 -2 0 10 3 10 15 -1 8 -9 24 -13 35 -10 11 3 20 0
20 -6 0 -6 -5 -11 -12 -11 -6 0 -8 -3 -5 -6 4 -4 13 -2 20 4 11 9 13 7 11 -11
-1 -12 -3 -23 -4 -24 -2 -2 -3 -8 -4 -13 0 -6 -7 -14 -14 -19 -11 -7 -10 -9 3
-14 9 -4 14 -3 11 1 -2 4 3 16 11 27 14 19 15 19 7 -5 -4 -14 -7 -30 -7 -36 0
-6 -8 -9 -17 -7 -9 3 -24 -3 -33 -12 -9 -8 -20 -16 -24 -16 -4 0 -6 -8 -4 -17
3 -15 0 -14 -20 3 -13 11 -18 13 -11 5 15 -17 16 -40 1 -40 -5 0 -8 4 -4 9 3
5 0 13 -6 17 -8 4 -9 3 -5 -4 8 -13 -27 -35 -40 -24 -5 4 -2 -2 6 -12 14 -18
14 -19 -7 -8 -19 11 -21 10 -18 -8 2 -11 -1 -23 -7 -26 -7 -4 -8 -2 -4 4 4 7
3 12 -3 12 -18 0 -21 -18 -4 -24 13 -5 14 -9 5 -14 -8 -6 -6 -13 8 -25 14 -11
20 -13 20 -4 0 8 3 9 8 1 12 -18 47 -22 67 -8 10 8 14 14 9 14 -6 0 -15 -5
-21 -11 -7 -7 -12 -6 -17 6 -3 9 -2 14 2 11 4 -2 14 -1 22 4 9 5 19 5 27 -2
17 -13 17 4 1 21 -11 11 -9 11 10 2 19 -10 22 -9 22 7 0 17 12 34 30 43 3 1
14 -3 26 -9 14 -7 25 -7 35 0 11 8 11 9 -3 4 -21 -6 -30 5 -17 24 5 9 9 10 9
3 0 -6 9 -15 21 -18 15 -5 17 -10 9 -20 -9 -11 -6 -12 12 -8 18 4 20 3 8 -6
-13 -9 -13 -11 1 -11 19 0 62 -44 52 -53 -3 -4 0 -7 7 -7 11 0 11 -3 2 -12 -7
-7 -12 -17 -12 -22 0 -6 4 -6 8 1 6 9 11 6 21 -8 7 -12 9 -19 4 -16 -5 3 -9
-2 -9 -12 0 -10 6 -18 13 -18 7 0 10 4 7 8 -2 4 0 10 5 13 11 7 9 -13 -2 -31
-5 -8 -3 -13 4 -13 8 0 7 -5 -2 -17 -12 -15 -12 -16 3 -10 10 3 20 2 23 -3 4
-6 2 -10 -3 -10 -6 0 -13 -8 -17 -17 -5 -15 -4 -16 6 -5 18 17 28 15 22 -6 -2
-10 6 -27 21 -41 14 -14 26 -21 26 -17 0 5 7 2 17 -5 15 -13 15 -12 4 8 -10
20 -9 22 6 16 16 -6 17 -5 3 12 -14 17 -14 18 7 7 25 -14 45 -16 24 -3 -8 5
-15 19 -16 30 -1 16 2 18 17 10 14 -7 20 -6 24 6 4 10 13 14 23 10 13 -5 14
-4 3 7 -11 11 -16 10 -27 -5 -8 -12 -15 -14 -20 -8 -3 6 -1 11 5 11 6 0 9 4 6
8 -3 5 8 8 25 8 16 0 29 -4 29 -9 0 -5 8 -3 17 4 11 10 14 10 9 2 -6 -12 5
-18 27 -14 4 0 7 -3 7 -8 0 -5 7 -11 14 -14 11 -4 13 -1 9 10 -4 11 -2 14 5 9
7 -4 12 -13 12 -21 0 -7 10 -12 24 -11 13 0 22 4 19 9 -2 4 1 7 6 7 6 0 11 -5
11 -10 0 -6 6 -9 13 -8 6 2 11 -3 9 -10 -1 -8 2 -11 8 -7 6 4 9 14 5 22 -4 13
-3 14 9 4 8 -7 21 -9 27 -5 8 5 9 3 4 -6 -6 -10 -4 -12 9 -7 9 4 27 0 40 -8
12 -8 26 -13 29 -10 4 3 5 2 2 -2 -3 -3 2 -17 10 -30 14 -21 14 -23 -2 -24
-16 0 -15 -2 2 -9 11 -5 14 -9 8 -9 -7 -1 -13 -6 -13 -11 0 -6 6 -9 13 -8 6 2
11 -3 9 -9 -1 -7 2 -13 7 -13 5 0 12 -7 15 -16 6 -15 4 -15 -11 -3 -16 13 -17
12 -5 -3 8 -10 10 -23 6 -30 -5 -8 -1 -8 11 2 17 14 18 13 12 -3 -4 -11 -3
-16 3 -12 6 3 10 1 10 -6 0 -8 4 -8 15 1 18 15 20 0 3 -20 -11 -12 -10 -12 5
0 10 7 16 21 14 31 -3 12 0 16 9 12 7 -2 10 -12 8 -21 -4 -13 -3 -13 6 2 10
14 9 20 -1 28 -10 7 -8 8 8 5 15 -3 20 -1 16 9 -3 8 -10 11 -17 7 -6 -3 -4 2
5 13 9 10 25 40 37 65 14 32 27 46 39 45 10 0 17 5 15 12 -1 8 2 11 8 7 6 -3
7 -11 4 -17 -4 -6 -2 -8 4 -4 5 3 13 0 16 -6 3 -7 3 -2 -1 12 -5 20 -3 23 8
14 24 -18 48 -24 55 -12 5 7 2 8 -7 3 -11 -6 -11 -5 -3 5 13 14 58 4 49 -11
-4 -5 -1 -9 6 -9 7 0 9 8 6 21 -4 14 -2 18 6 11 18 -13 59 -13 76 1 12 10 14
9 8 -7 -6 -15 -5 -17 6 -8 8 7 18 8 23 4 4 -4 2 1 -5 11 -12 15 -12 17 5 11
10 -4 24 -11 31 -16 7 -6 16 -2 26 12 14 21 16 21 26 3 6 -10 11 -13 11 -7 0
6 10 11 23 10 16 -1 21 4 19 17 -2 10 2 17 10 16 24 -3 39 1 34 9 -8 13 37 12
54 -1 13 -10 13 -10 2 5 -8 10 -9 19 -3 22 5 3 12 0 15 -6 3 -7 3 -3 1 8 -5
21 20 42 33 29 3 -3 0 -5 -6 -5 -7 0 -12 -4 -12 -10 0 -21 18 -9 30 19 10 26
14 28 31 18 10 -6 19 -18 19 -25 0 -7 -5 -10 -12 -6 -7 4 -8 3 -4 -5 6 -9 11
-9 22 0 10 8 14 8 14 0 0 -6 7 -11 15 -11 8 0 15 -4 15 -10 0 -5 7 -10 15 -10
8 0 15 -4 15 -10 0 -5 -4 -10 -10 -10 -5 0 -10 -5 -10 -11 0 -8 5 -7 15 1 13
11 18 10 29 -5 8 -11 18 -15 26 -10 9 5 11 4 6 -3 -4 -7 -2 -12 4 -12 7 0 10
-7 7 -14 -4 -11 -1 -13 10 -9 11 4 14 3 9 -6 -5 -8 -3 -12 5 -10 29 3 40 -1
33 -13 -6 -10 -4 -10 8 0 10 8 18 9 22 3 4 -6 14 -7 22 -4 12 4 13 8 3 14 -7
4 -17 5 -23 2 -5 -3 -6 -1 -2 5 4 7 14 12 22 12 17 0 19 16 2 26 -7 5 -8 3 -3
-6 5 -9 4 -11 -4 -6 -9 6 -9 12 1 24 7 10 9 14 4 10 -12 -10 -39 20 -30 34 5
9 2 8 -10 -1 -11 -9 -16 -10 -14 -3 2 7 -8 18 -22 25 -14 7 -25 21 -25 32 0
10 -7 20 -15 22 -13 4 -13 3 0 -6 9 -7 10 -11 3 -11 -6 0 -15 5 -18 10 -4 6
-11 7 -17 4 -7 -4 -8 -2 -4 4 4 7 -3 16 -18 23 -13 6 -22 17 -19 24 2 7 -4 15
-14 18 -16 4 -16 5 0 6 9 0 17 6 17 12 0 5 -4 8 -8 5 -5 -3 -9 1 -9 9 0 8 5
13 11 12 5 -1 10 3 11 8 1 20 16 34 34 30 15 -3 18 1 14 18 -5 22 -5 22 11 2
l16 -20 -6 20 c-7 19 -6 20 8 1 8 -10 20 -16 26 -12 7 4 12 2 12 -3 0 -6 6
-11 14 -11 7 0 19 -7 26 -15 11 -13 15 -13 21 -3 7 10 9 10 10 1 3 -28 4 -32
13 -40 5 -5 6 -3 2 5 -5 8 0 12 14 12 14 0 19 -4 15 -12 -4 -7 1 -4 9 6 15 18
21 15 16 -9 -1 -5 2 -6 7 -2 4 5 8 16 8 25 0 9 6 16 13 14 8 -1 11 2 7 8 -3 5
0 10 7 10 7 0 4 6 -7 12 -11 7 -26 18 -33 25 -8 7 -19 10 -25 6 -7 -4 -5 2 3
12 14 17 14 18 -10 5 -22 -12 -24 -12 -12 2 10 13 10 18 1 24 -8 4 -9 3 -5 -4
10 -16 -7 -15 -23 1 -11 10 -13 9 -7 -3 7 -13 6 -13 -6 0 -7 8 -20 16 -28 18
-8 2 -18 8 -21 14 -4 6 -11 8 -17 4 -6 -3 -14 -1 -18 5 -4 7 -3 9 3 6 12 -8
39 20 29 30 -3 3 -6 1 -6 -5 0 -7 -8 -12 -17 -12 -15 0 -16 2 -3 10 13 9 13
10 0 10 -10 1 -7 5 8 13 12 7 20 16 16 19 -5 6 32 32 48 33 3 0 9 3 13 7 10
10 -17 4 -42 -10 -13 -7 -23 -9 -23 -5 0 4 -4 2 -9 -5 -7 -11 -9 -11 -14 1 -4
10 1 14 16 13 12 0 21 4 20 10 -1 7 14 10 40 8 22 -1 48 1 57 6 11 6 22 5 30
-3 10 -9 11 -9 6 1 -4 6 -2 12 3 12 6 0 11 -4 11 -9 0 -11 26 -8 37 4 4 4 3 5
-4 1 -14 -7 -28 10 -14 18 5 3 14 0 20 -8 14 -17 33 -15 56 4 16 13 16 15 -1
27 -10 7 -12 13 -6 13 10 0 10 5 2 21 -7 12 -18 18 -26 15 -7 -3 -22 4 -33 15
-17 19 -20 19 -35 4 -9 -9 -16 -13 -16 -9 0 3 -8 0 -17 -7 -15 -12 -16 -12 -8
1 8 13 7 13 -8 1 -9 -7 -17 -9 -17 -4 0 12 -38 14 -45 2 -3 -5 0 -6 8 -3 8 3
18 1 22 -5 4 -7 0 -8 -11 -4 -12 4 -15 3 -10 -5 5 -8 2 -10 -8 -6 -9 3 -16 13
-16 21 0 13 -3 13 -15 3 -13 -11 -14 -10 -9 4 4 10 13 15 20 12 8 -3 14 -1 14
4 0 6 -7 10 -15 10 -19 0 -19 5 1 36 14 20 19 22 33 12 14 -11 14 -11 4 3 -7
9 -9 20 -5 24 4 5 2 5 -5 1 -6 -3 -15 -1 -19 5 -4 8 -3 9 4 5 7 -4 12 -2 12 4
0 6 4 9 9 6 5 -3 12 1 15 10 3 8 2 12 -4 9 -6 -3 -7 1 -4 9 4 10 1 16 -7 16
-7 0 -9 3 -6 7 4 3 17 -2 28 -13 l22 -19 -19 30 -18 30 24 -20 c14 -11 20 -13
13 -6 -12 14 -6 44 7 36 5 -3 11 -1 14 4 7 11 -13 9 -34 -4 -13 -8 -13 -7 -1
8 7 9 10 17 6 17 -4 0 -2 6 4 13 6 8 7 18 3 22 -4 5 -1 5 6 1 7 -4 10 -11 7
-16 -3 -5 -1 -11 4 -14 5 -4 8 2 6 11 -1 10 7 26 19 36 13 11 15 15 5 12 -11
-4 -18 1 -22 15 -4 17 -2 21 12 17 14 -3 17 1 15 19 -1 13 3 24 9 24 6 0 3 6
-8 13 -14 11 -15 16 -5 22 9 6 11 4 5 -5 -5 -8 -4 -11 3 -7 5 4 9 15 7 25 -2
9 -4 19 -4 22 -1 3 -6 -2 -11 -10 -5 -8 -10 -10 -10 -4 0 19 12 24 34 12 19
-10 20 -10 7 5 -7 10 -11 17 -7 17 3 0 1 11 -4 25 -8 20 -7 23 8 18 15 -6 16
-5 2 12 -14 17 -13 17 10 11 25 -6 25 -6 3 5 -25 13 -29 24 -11 35 7 5 8 2 3
-7 -5 -8 -4 -11 0 -6 5 4 10 18 11 30 2 12 0 16 -2 10 -8 -19 -20 -16 -20 6 0
11 5 17 13 14 16 -6 6 28 -11 39 -7 5 -6 8 3 8 8 0 11 6 7 16 -5 14 -4 15 9 4
13 -11 14 -10 9 5 -6 14 -4 16 6 10 9 -5 11 -4 6 4 -4 6 -11 9 -16 6 -4 -3
-14 2 -21 11 -10 12 -10 15 2 12 8 -2 13 3 11 10 -1 8 2 11 8 7 5 -3 10 -1 10
4 0 6 -6 11 -12 11 -9 0 -8 3 2 9 8 6 18 7 24 4 5 -3 6 -1 2 5 -4 6 -13 9 -21
5 -9 -3 -15 1 -15 11 0 9 6 13 14 10 8 -3 17 0 21 6 3 6 3 10 -2 9 -4 -1 -15
-1 -23 0 -13 1 -13 2 0 11 13 9 13 10 0 11 -10 0 -8 3 5 9 16 7 16 9 4 9 -9 1
-20 8 -23 17 -3 8 -2 12 4 9 6 -3 11 -3 11 2 6 36 5 53 -3 53 -5 0 -7 4 -4 9
3 4 -3 19 -14 31 -26 30 -25 33 3 19 19 -11 20 -10 10 3 -8 9 -9 18 -3 26 7 9
7 9 -2 2 -18 -15 -28 -12 -21 7 5 12 3 14 -7 8 -10 -6 -11 -4 -4 6 5 8 9 28
10 44 1 17 -1 25 -3 18 -2 -7 -11 -9 -19 -6 -13 5 -13 7 -2 14 10 7 11 9 0 9
-7 0 -11 4 -7 9 3 6 -4 8 -16 6 -17 -4 -19 -2 -8 11 6 8 9 17 6 20 -2 3 -7 0
-9 -7z m79 -221 c0 -7 4 -21 8 -30 4 -10 3 -18 -2 -18 -5 0 -10 6 -10 13 0 6
-4 20 -8 30 -4 9 -3 17 2 17 5 0 10 -6 10 -12z m-536 -35 c12 -16 12 -17 -2
-6 -9 7 -20 9 -24 5 -5 -4 -5 -1 -1 6 9 16 11 15 27 -5z m-366 -124 c-4 -5
-14 -8 -23 -8 -15 1 -15 2 1 6 9 2 14 9 11 15 -4 7 -2 8 5 4 6 -4 9 -12 6 -17z
m65 -24 c0 -12 -19 -12 -23 0 -4 9 -1 12 9 8 7 -3 14 -7 14 -8z m-904 -287 c4
-7 3 -8 -5 -4 -6 4 -14 0 -17 -8 -3 -9 -11 -16 -17 -16 -5 0 -2 9 8 20 21 23
22 24 31 8z m1700 -113 c-3 -23 -12 -26 -13 -5 -1 11 2 20 7 20 4 0 7 -7 6
-15z m-1821 -75 c-3 -5 -11 -10 -16 -10 -6 0 -7 5 -4 10 3 6 11 10 16 10 6 0
7 -4 4 -10z m1800 0 c3 -5 1 -10 -4 -10 -6 0 -11 5 -11 10 0 6 2 10 4 10 3 0
8 -4 11 -10z m-1884 -217 c-12 -20 -14 -14 -5 12 4 9 9 14 11 11 3 -2 0 -13
-6 -23z m1931 -85 c-7 -7 -12 -8 -12 -2 0 14 12 26 19 19 2 -3 -1 -11 -7 -17z
m-1942 -12 c0 -3 -4 -8 -10 -11 -5 -3 -10 -1 -10 4 0 6 5 11 10 11 6 0 10 -2
10 -4z m-12 -260 c-7 -8 -15 -12 -17 -11 -5 6 10 25 20 25 5 0 4 -6 -3 -14z
m1376 -337 c3 -3 -5 -5 -19 -5 -13 0 -22 3 -19 7 4 8 30 6 38 -2z m-81 -14
c-3 -9 -8 -14 -10 -11 -3 3 -2 9 2 15 9 16 15 13 8 -4z"/>
<path d="M2070 3136 c0 -2 7 -7 16 -10 8 -3 12 -2 9 4 -6 10 -25 14 -25 6z"/>
<path d="M2006 3098 c3 -5 10 -6 15 -3 13 9 11 12 -6 12 -8 0 -12 -4 -9 -9z"/>
<path d="M2010 3069 c0 -5 5 -7 10 -4 6 3 10 8 10 11 0 2 -4 4 -10 4 -5 0 -10
-5 -10 -11z"/>
<path d="M2188 3053 c7 -3 16 -2 19 1 4 3 -2 6 -13 5 -11 0 -14 -3 -6 -6z"/>
<path d="M2784 3038 l-19 -23 23 19 c21 18 27 26 19 26 -2 0 -12 -10 -23 -22z"/>
<path d="M2596 2938 c3 -5 10 -6 15 -3 13 9 11 12 -6 12 -8 0 -12 -4 -9 -9z"/>
<path d="M2192 2927 c-7 -8 -7 -18 -2 -27 5 -8 6 -18 3 -24 -3 -5 -1 -6 6 -2
6 4 9 11 6 16 -3 4 1 11 7 13 8 3 5 6 -6 6 -15 1 -16 4 -6 16 7 8 10 15 7 15
-2 0 -9 -6 -15 -13z"/>
<path d="M1740 2869 c0 -5 5 -7 10 -4 6 3 10 8 10 11 0 2 -4 4 -10 4 -5 0 -10
-5 -10 -11z"/>
<path d="M2391 2841 c-10 -6 -9 -10 3 -14 8 -3 18 -2 21 3 8 13 -9 20 -24 11z"/>
<path d="M2430 2839 c0 -5 5 -7 10 -4 6 3 10 8 10 11 0 2 -4 4 -10 4 -5 0 -10
-5 -10 -11z"/>
<path d="M1575 2748 l-20 -21 23 12 c12 6 22 16 22 21 0 13 -2 12 -25 -12z"/>
<path d="M3095 2690 c-3 -6 1 -7 9 -4 18 7 21 14 7 14 -6 0 -13 -4 -16 -10z"/>
<path d="M3095 2620 c3 -5 8 -10 11 -10 2 0 4 5 4 10 0 6 -5 10 -11 10 -5 0
-7 -4 -4 -10z"/>
<path d="M1337 2518 c2 -5 10 -8 18 -8 8 0 16 3 18 8 3 4 -5 7 -18 7 -13 0
-21 -3 -18 -7z"/>
<path d="M1255 2360 c3 -5 8 -10 11 -10 2 0 4 5 4 10 0 6 -5 10 -11 10 -5 0
-7 -4 -4 -10z"/>
<path d="M1095 2041 c-3 -5 -2 -12 3 -15 5 -3 9 1 9 9 0 17 -3 19 -12 6z"/>
<path d="M1113 2008 c-15 -20 -25 -38 -20 -38 3 0 12 11 21 25 17 26 16 35 -1
13z"/>
<path d="M3009 1843 c-13 -16 -12 -17 4 -4 16 13 21 21 13 21 -2 0 -10 -8 -17
-17z"/>
<path d="M2796 1602 c-3 -4 4 -9 15 -9 23 -2 25 3 4 10 -8 4 -16 3 -19 -1z"/>
<path d="M2870 1599 c0 -5 5 -7 10 -4 6 3 10 8 10 11 0 2 -4 4 -10 4 -5 0 -10
-5 -10 -11z"/>
<path d="M1126 1592 c-11 -10 -6 -19 9 -19 8 0 15 4 15 9 0 5 6 6 13 2 6 -4 8
-3 4 1 -9 11 -34 15 -41 7z"/>
<path d="M2785 1571 c-3 -5 0 -13 6 -17 7 -4 9 -3 5 4 -3 5 0 13 6 15 9 4 10
6 1 6 -6 1 -14 -3 -18 -8z"/>
<path d="M1253 1545 c0 -8 3 -13 5 -10 3 3 12 -1 21 -7 10 -8 9 -4 -3 10 -23
26 -23 26 -23 7z"/>
<path d="M2800 1540 c-9 -6 -10 -10 -3 -10 6 0 15 5 18 10 8 12 4 12 -15 0z"/>
<path d="M2815 1500 c-3 -5 -1 -10 4 -10 6 0 11 5 11 10 0 6 -2 10 -4 10 -3 0
-8 -4 -11 -10z"/>
<path d="M2670 1439 c0 -5 5 -7 10 -4 6 3 10 8 10 11 0 2 -4 4 -10 4 -5 0 -10
-5 -10 -11z"/>
<path d="M2790 1337 c0 -2 6 -10 14 -16 11 -9 16 -9 22 1 4 7 4 10 -1 6 -4 -4
-14 -3 -22 3 -7 6 -13 9 -13 6z"/>
<path d="M1786 1301 c-4 -5 3 -7 14 -4 23 6 26 13 6 13 -8 0 -17 -4 -20 -9z"/>
<path d="M1833 1284 c0 -7 4 -11 9 -8 4 3 8 0 8 -5 0 -6 4 -11 10 -11 13 0 2
27 -14 33 -7 3 -13 -1 -13 -9z"/>
<path d="M2070 1285 c-1 -5 -3 -20 -6 -33 -4 -21 -3 -22 12 -8 11 12 13 20 5
33 -6 10 -11 14 -11 8z"/>
<path d="M2050 1210 c6 -11 13 -20 16 -20 2 0 0 9 -6 20 -6 11 -13 20 -16 20
-2 0 0 -9 6 -20z"/>
<path d="M2030 1179 c0 -5 5 -7 10 -4 6 3 10 8 10 11 0 2 -4 4 -10 4 -5 0 -10
-5 -10 -11z"/>
</g>
</svg>
